<?xml version="1.0" encoding="UTF-8"?>
<svg xmlns="http://www.w3.org/2000/svg" style="display: none;">
  <symbol id="wifi" viewBox="0 0 24 24">
    <path d="M12 21l-1.2-1.6c-3.4-4.5-5.8-7.7-5.8-11.4 0-3.8 3-7 7-7s7 3.2 7 7c0 3.7-2.4 6.9-5.8 11.4L12 21z"/>
  </symbol>
  <symbol id="tv" viewBox="0 0 24 24">
    <path d="M20 3H4c-1.1 0-2 .9-2 2v12c0 1.1.9 2 2 2h4v2h8v-2h4c1.1 0 2-.9 2-2V5c0-1.1-.9-2-2-2zm0 14H4V5h16v12z"/>
  </symbol>
  <symbol id="ac" viewBox="0 0 24 24">
    <path d="M22 11h-4.2c-.4-1.2-1-2.3-1.8-3.2l3-3-1.4-1.4-3 3c-.9-.8-2-1.4-3.2-1.8V0h-2v4.2c-1.2.4-2.3 1-3.2 1.8l-3-3L1.8 4.4l3 3c-.8.9-1.4 2-1.8 3.2H0v2h4.2c.4 1.2 1 2.3 1.8 3.2l-3 3 1.4 1.4 3-3c.9.8 2 1.4 3.2 1.8V22h2v-4.2c1.2-.4 2.3-1 3.2-1.8l3 3 1.4-1.4-3-3c.8-.9 1.4-2 1.8-3.2H22v-2z"/>
  </symbol>
  <symbol id="bed" viewBox="0 0 24 24">
    <path d="M20 10V7c0-1.1-.9-2-2-2H6c-1.1 0-2 .9-2 2v3c-1.1 0-2 .9-2 2v5h1.33L4 19h1l.67-2h12.67l.66 2h1l.67-2H22v-5c0-1.1-.9-2-2-2zm-9 0H6V7h5v3zm7 0h-5V7h5v3z"/>
  </symbol>
  <symbol id="bath" viewBox="0 0 24 24">
    <path d="M7 7c0-1.1.9-2 2-2s2 .9 2 2h2c0-2.21-1.79-4-4-4S5 4.79 5 7h2zm13 5H4v8h16v-8z"/>
  </symbol>
</svg>